<?xml version="1.0" standalone="no"?>
<!DOCTYPE svg PUBLIC "-//W3C//DTD SVG 20010904//EN"
 "http://www.w3.org/TR/2001/REC-SVG-20010904/DTD/svg10.dtd">
<svg version="1.0" xmlns="http://www.w3.org/2000/svg"
 width="648.000000pt" height="648.000000pt" viewBox="0 0 648.000000 648.000000"
 preserveAspectRatio="xMidYMid meet">
<metadata>
Created by potrace 1.14, written by Peter Selinger 2001-2017
</metadata>
<g transform="translate(0.000000,648.000000) scale(0.100000,-0.100000)"
fill="#000000" stroke="none">
<path d="M1828 6195 c-3 -3 -77 -8 -164 -11 -164 -6 -191 -13 -221 -54 -25
-35 -101 -58 -218 -64 -16 -1 -20 -8 -19 -36 1 -50 12 -141 29 -245 8 -49 15
-94 15 -98 0 -5 4 -6 9 -2 5 3 13 1 16 -5 5 -8 11 -8 20 0 10 8 15 8 21 -1 5
-8 3 -10 -7 -4 -11 6 -12 5 -2 -5 10 -11 15 -11 28 0 13 11 16 11 13 0 -2 -8
5 -16 16 -18 13 -3 16 0 11 10 -3 7 0 5 8 -4 8 -10 17 -15 20 -11 4 3 7 2 7
-4 0 -6 13 -13 29 -16 18 -4 32 -14 36 -27 9 -28 38 -41 78 -35 l34 6 2 -233
c6 -615 -3 -2206 -13 -2277 -4 -30 -5 -79 -1 -109 6 -51 13 -61 57 -94 10 -7
20 -29 23 -48 4 -23 21 -50 48 -78 l42 -43 0 -117 c0 -64 -4 -173 -8 -242 -5
-69 -10 -155 -13 -192 -4 -60 -8 -71 -37 -100 -19 -18 -47 -51 -63 -73 -16
-22 -31 -42 -34 -45 -13 -12 -60 -110 -76 -155 -20 -57 -32 -221 -22 -286 10
-66 14 -78 47 -156 44 -107 88 -168 168 -233 43 -35 171 -118 175 -114 3 2 27
-37 53 -87 37 -69 70 -112 139 -183 50 -50 102 -101 116 -112 59 -44 119 -84
141 -93 13 -5 47 -22 74 -38 105 -61 169 -75 339 -76 154 -1 155 0 220 32 90
44 185 147 222 242 25 65 30 71 78 93 42 20 63 24 117 21 89 -4 128 -27 154
-91 48 -117 146 -226 249 -277 76 -38 216 -51 356 -32 265 35 534 243 670 519
44 88 47 92 125 143 83 54 205 167 205 190 0 7 4 13 8 13 15 0 55 87 47 101
-5 7 -4 10 3 5 21 -13 46 130 44 253 -1 95 -6 119 -41 216 -30 83 -98 197
-158 267 -38 44 -41 51 -48 130 -4 45 -8 97 -11 113 -2 17 -4 84 -6 150 -2
100 0 124 15 145 9 13 17 41 17 60 0 26 7 43 26 61 29 27 44 51 49 81 4 19 15
34 63 86 6 7 12 25 13 40 0 15 2 56 3 90 2 66 -17 116 -49 128 -8 4 -15 16
-15 27 0 12 -21 42 -46 68 -41 42 -46 51 -49 100 -1 30 -3 60 -4 67 -1 11 -78
49 -91 45 -3 -1 -5 13 -4 30 0 18 -7 47 -17 64 -10 18 -23 52 -29 75 -6 24
-14 50 -17 58 -3 8 -8 24 -10 34 -2 11 -7 24 -12 30 -15 20 -19 55 -6 66 25
21 -78 373 -160 545 -48 101 -103 173 -216 285 -103 102 -139 131 -152 123 -6
-4 -7 -1 -3 6 5 8 0 14 -13 18 -12 3 -21 9 -21 14 0 5 -7 9 -15 9 -8 0 -15 3
-15 8 0 9 -40 32 -180 102 -107 54 -215 91 -351 120 l-57 13 -6 57 c-9 79 -26
100 -76 95 -22 -2 -48 -8 -57 -13 -17 -9 -215 -11 -238 -3 -5 2 -33 3 -61 2
-56 -1 -60 -6 -70 -84 -5 -37 -12 -47 -30 -47 -28 0 -310 -98 -370 -128 -94
-48 -276 -180 -363 -265 -71 -67 -221 -252 -221 -270 0 -4 -7 -15 -17 -26 -49
-58 -150 -282 -185 -411 -29 -108 -29 -107 -10 -140 12 -21 14 -33 6 -38 -18
-12 -36 -53 -30 -68 3 -8 2 -13 -2 -10 -11 6 -57 -161 -56 -206 0 -35 -2 -37
-36 -43 -53 -9 -64 -20 -62 -57 2 -25 -6 -42 -32 -70 -19 -20 -36 -43 -39 -50
-3 -7 -5 167 -6 387 -3 603 -3 625 -15 617 -7 -3 -7 0 0 9 8 9 12 89 13 233 1
121 4 223 7 228 3 4 2 8 -3 8 -7 0 -8 377 -2 697 l2 113 31 5 c39 7 92 12 132
14 37 1 81 41 113 104 43 82 40 81 264 131 113 26 215 49 226 51 31 6 38 12
43 39 6 28 -4 49 -25 52 -8 1 -63 14 -123 29 -60 15 -117 28 -127 30 -9 2 -21
6 -25 9 -4 2 -28 7 -52 11 -25 4 -49 8 -55 9 -5 1 -35 8 -65 15 -30 6 -60 15
-66 19 -14 9 -45 69 -42 79 4 9 -65 17 -74 8z"/>
</g>
</svg>
